<svg width="27" height="20" viewBox="0 0 27 20" fill="none" xmlns="http://www.w3.org/2000/svg">
<path d="M6.72766 19.94C5.00099 19.94 3.60099 19.3333 2.52766 18.12C1.50099 16.86 0.987656 15.2267 0.987656 13.22C0.987656 10.6067 1.75766 8.18 3.29766 5.94C4.83766 3.65333 6.75099 1.95 9.03766 0.83L9.45766 1.67C8.47766 2.41667 7.61432 3.37333 6.86766 4.54C6.12099 5.70666 5.58432 7.15333 5.25766 8.88L6.72766 9.23C8.36099 9.60333 9.62099 10.3033 10.5077 11.33C11.441 12.31 11.9077 13.5 11.9077 14.9C11.9077 16.3933 11.3943 17.6067 10.3677 18.54C9.38766 19.4733 8.17432 19.94 6.72766 19.94ZM21.4977 19.94C19.771 19.94 18.371 19.3333 17.2977 18.12C16.271 16.86 15.7577 15.2267 15.7577 13.22C15.7577 10.6067 16.5277 8.18 18.0677 5.94C19.6077 3.65333 21.521 1.95 23.8077 0.83L24.2277 1.67C23.2477 2.41667 22.3843 3.37333 21.6377 4.54C20.891 5.70666 20.3543 7.15333 20.0277 8.88L21.4977 9.23C23.131 9.60333 24.391 10.3033 25.2777 11.33C26.211 12.31 26.6777 13.5 26.6777 14.9C26.6777 16.3933 26.1643 17.6067 25.1377 18.54C24.1577 19.4733 22.9443 19.94 21.4977 19.94Z" fill="#785E6E"/>
</svg>
