<svg width="128" height="128" viewBox="0 0 128 128" fill="none" xmlns="http://www.w3.org/2000/svg">
<path d="M0 16C0 7.16344 7.16344 0 16 0H128V128H16C7.16344 128 0 120.837 0 112V16Z" fill="#BCD1FF"/>
<path d="M30.4313 85.3214L58.298 101.516C58.8886 101.86 59.8401 101.86 60.4307 101.521L102.773 77.0716C103.364 76.7326 103.364 76.1803 102.773 75.8358L74.9065 59.6415C74.3213 59.3024 73.3698 59.3024 72.7792 59.6415L30.4368 84.0856C29.8462 84.4301 29.8407 84.9824 30.4313 85.3214Z" fill="#AABAFD"/>
<path d="M63.3612 86.9672C63.0282 87.1595 63.0302 87.4727 63.361 87.6649L70.2303 91.6569C70.5611 91.8492 71.1018 91.8513 71.4348 91.6591L84.9714 83.8437C85.3044 83.6515 85.3024 83.3383 84.9716 83.146L78.1023 79.154C77.7715 78.9618 77.2308 78.9596 76.8978 79.1519L63.3612 86.9672Z" fill="#2E4277"/>
<path d="M29.9939 84.7091L29.9994 86.3392C29.9994 86.5579 30.147 86.7821 30.4368 86.9516L58.3035 103.146C58.8941 103.485 59.8456 103.485 60.4362 103.146L102.779 78.7018C103.074 78.5323 103.222 78.3081 103.222 78.0784L103.216 76.4538C103.216 76.6781 103.069 76.9022 102.773 77.0718L60.4307 101.521C59.8401 101.86 58.8886 101.86 58.298 101.516L30.4314 85.3215C30.1361 85.152 29.9939 84.9333 29.9939 84.7091Z" fill="#798FFE"/>
<path d="M72.6969 27.3963C73.287 27.0556 73.7669 27.3291 73.7688 28.0071L73.8443 57.7969C73.8462 58.4709 73.3694 59.3007 72.7794 59.6414L31.0471 83.7333C30.4571 84.0739 29.9772 83.7965 29.9753 83.1224L29.8998 53.3326C29.8979 52.6546 30.3746 51.8288 30.9647 51.4882L72.6969 27.3963Z" fill="#1B2A4F"/>
<path d="M28.7789 52.6833L28.8555 82.472C28.8555 82.8055 28.9758 83.0461 29.1672 83.1555L30.2865 83.8064C30.095 83.6971 29.9748 83.4565 29.9748 83.1229L29.8982 53.3342C29.8982 52.6561 30.374 51.8304 30.9646 51.4859L72.697 27.3967C72.9923 27.2272 73.2603 27.2108 73.4571 27.3202L72.3379 26.6693C72.1465 26.5599 71.8731 26.5763 71.5778 26.7458L29.8453 50.8404C29.2547 51.1795 28.7789 52.0052 28.7789 52.6833Z" fill="#384E85"/>
<path d="M31.4059 52.9693L31.4785 81.7481L72.3379 58.1602L72.2653 29.3814L31.4059 52.9693Z" fill="#384E85"/>
<path d="M31.4059 52.9693L31.4181 57.7964L72.2775 34.2084L72.2653 29.3814L31.4059 52.9693Z" fill="#AABAFD"/>
<path d="M65.5283 35.092C65.9222 34.8646 66.2424 35.0393 66.2437 35.4919C66.245 35.9445 65.9268 36.4956 65.5329 36.7231C65.1458 36.9466 64.8255 36.7641 64.8242 36.3115C64.8229 35.8588 65.1411 35.3155 65.5283 35.092Z" fill="white"/>
<path d="M67.8035 33.7785C68.1906 33.5549 68.5108 33.7296 68.5121 34.1823C68.5134 34.6349 68.1952 35.186 67.8081 35.4095C67.4142 35.6369 67.0939 35.4544 67.0927 35.0018C67.0914 34.5492 67.4096 34.0059 67.8035 33.7785Z" fill="white"/>
<path d="M70.0718 32.4689C70.4657 32.2414 70.7859 32.4161 70.7872 32.8688C70.7885 33.3214 70.4703 33.8725 70.0764 34.0999C69.6825 34.3273 69.3622 34.1448 69.361 33.6922C69.3597 33.2396 69.6779 32.6963 70.0718 32.4689Z" fill="white"/>
<path d="M38.977 83.3222L36.3022 84.8766L35.15 84.2114L37.8247 82.657L38.977 83.3222Z" fill="#384E85"/>
<path d="M67.7565 66.5975L65.0781 68.154L63.9259 67.4888L66.6043 65.9323L67.7565 66.5975Z" fill="#384E85"/>
<path d="M74.9517 62.4162L72.2733 63.9727L71.1211 63.3074L73.7995 61.7509L74.9517 62.4162Z" fill="#384E85"/>
<path d="M70.1511 72.1497L67.4764 73.7041L65.0981 72.331L67.7729 70.7766L70.1511 72.1497Z" fill="#384E85"/>
<path d="M83.3436 71.4311L80.6652 72.9876L78.2832 71.6123L80.9616 70.0558L83.3436 71.4311Z" fill="#384E85"/>
<path d="M86.9429 69.3394L84.2645 70.8959L78.8838 67.7894L81.5622 66.2329L86.9429 69.3394Z" fill="#384E85"/>
<path d="M77.9502 64.1476L73.0117 67.0175L70.6298 65.6423L75.5682 62.7723L77.9502 64.1476Z" fill="#384E85"/>
<path d="M72.0945 67.5504L69.4162 69.1069L67.0342 67.7317L69.7125 66.1752L72.0945 67.5504Z" fill="#384E85"/>
<path d="M80.9453 65.8769L74.6676 69.525L72.2893 68.1519L78.567 64.5038L80.9453 65.8769Z" fill="#384E85"/>
<path d="M73.7501 70.0579L71.0718 71.6144L68.6935 70.2413L71.3718 68.6848L73.7501 70.0579Z" fill="#384E85"/>
<path d="M76.7491 71.7895L74.0707 73.346L71.6887 71.9707L74.3671 70.4142L76.7491 71.7895Z" fill="#384E85"/>
<path d="M68.4953 69.6423L65.8169 71.1988L63.4349 69.8235L66.1133 68.267L68.4953 69.6423Z" fill="#384E85"/>
<path d="M64.1573 68.689L61.4825 70.2434L60.3303 69.5782L63.005 68.0238L64.1573 68.689Z" fill="#384E85"/>
<path d="M60.5618 70.7785L57.8834 72.335L56.7312 71.6698L59.4096 70.1133L60.5618 70.7785Z" fill="#384E85"/>
<path d="M62.3592 80.1518L59.6808 81.7083L57.2988 80.333L59.9772 78.7765L62.3592 80.1518Z" fill="#384E85"/>
<path d="M56.9624 72.8703L54.2877 74.4246L53.1355 73.7594L55.8102 72.205L56.9624 72.8703Z" fill="#384E85"/>
<path d="M61.3004 73.8233L58.6257 75.3777L56.2437 74.0024L58.9184 72.4481L61.3004 73.8233Z" fill="#384E85"/>
<path d="M53.3668 74.9598L50.6885 76.5163L49.5363 75.8511L52.2146 74.2946L53.3668 74.9598Z" fill="#384E85"/>
<path d="M57.7048 75.9127L55.0264 77.4692L52.6444 76.094L55.3228 74.5375L57.7048 75.9127Z" fill="#384E85"/>
<path d="M62.9559 76.3307L60.2812 77.885L57.903 76.5119L60.5777 74.9576L62.9559 76.3307Z" fill="#384E85"/>
<path d="M49.771 77.0493L47.0926 78.6058L45.9404 77.9406L48.6188 76.3841L49.771 77.0493Z" fill="#384E85"/>
<path d="M54.1089 78.0025L51.4306 79.559L49.0486 78.1838L51.727 76.6273L54.1089 78.0025Z" fill="#384E85"/>
<path d="M65.955 78.062L63.2803 79.6163L60.8983 78.2411L63.573 76.6867L65.955 78.062Z" fill="#384E85"/>
<path d="M59.3604 78.4202L56.682 79.9767L54.3037 78.6036L56.9821 77.0471L59.3604 78.4202Z" fill="#384E85"/>
<path d="M46.172 79.1411L43.4936 80.6976L42.3414 80.0324L45.0198 78.4759L46.172 79.1411Z" fill="#384E85"/>
<path d="M50.5098 80.0941L47.8314 81.6506L45.4495 80.2754L48.1278 78.7188L50.5098 80.0941Z" fill="#384E85"/>
<path d="M55.765 80.5099L53.0866 82.0664L50.7084 80.6933L53.3867 79.1368L55.765 80.5099Z" fill="#384E85"/>
<path d="M46.9144 82.1838L44.236 83.7403L41.854 82.365L44.5324 80.8085L46.9144 82.1838Z" fill="#384E85"/>
<path d="M58.7635 82.2413L56.0851 83.7978L53.7031 82.4225L56.3815 80.866L58.7635 82.2413Z" fill="#384E85"/>
<path d="M52.1658 82.6016L49.4874 84.1581L47.1091 82.7849L49.7875 81.2285L52.1658 82.6016Z" fill="#384E85"/>
<path d="M55.1645 84.3328L52.4861 85.8893L50.1041 84.5141L52.7825 82.9576L55.1645 84.3328Z" fill="#384E85"/>
<path d="M69.1076 79.7039L55.4845 87.6207L53.1025 86.2455L66.7256 78.3286L69.1076 79.7039Z" fill="#384E85"/>
<path d="M51.5689 86.4222L48.8905 87.9787L46.5085 86.6035L49.1869 85.047L51.5689 86.4222Z" fill="#384E85"/>
<path d="M48.57 84.6911L42.296 88.3371L39.9177 86.964L46.1917 83.318L48.57 84.6911Z" fill="#384E85"/>
<path d="M47.9694 88.514L45.2947 90.0684L42.9127 88.6932L45.5874 87.1388L47.9694 88.514Z" fill="#384E85"/>
<path d="M54.5676 88.1536L48.2936 91.7997L45.9116 90.4244L52.1856 86.7784L54.5676 88.1536Z" fill="#384E85"/>
<path d="M42.5762 81.2306L39.8978 82.7871L38.7456 82.1218L41.424 80.5653L42.5762 81.2306Z" fill="#384E85"/>
<path d="M71.3524 64.5077L68.6741 66.0642L67.5219 65.399L70.2002 63.8425L71.3524 64.5077Z" fill="#384E85"/>
<path d="M64.8997 71.7318L62.2213 73.2883L59.8394 71.9131L62.5177 70.3566L64.8997 71.7318Z" fill="#384E85"/>
<path d="M72.5529 77.7018L69.8745 79.2583L67.4926 77.8831L70.1709 76.3266L72.5529 77.7018Z" fill="#384E85"/>
<path d="M69.5543 75.9704L66.8759 77.5269L64.4939 76.1517L67.1723 74.5952L69.5543 75.9704Z" fill="#384E85"/>
<path d="M66.5557 74.2392L63.8773 75.7957L61.499 74.4226L64.1774 72.8661L66.5557 74.2392Z" fill="#384E85"/>
<path d="M79.748 73.5206L77.0696 75.0771L74.6876 73.7018L77.366 72.1454L79.748 73.5206Z" fill="#384E85"/>
<path d="M76.1485 75.6121L73.4738 77.1665L71.0918 75.7912L73.7665 74.2369L76.1485 75.6121Z" fill="#384E85"/>
<path d="M43.3147 84.2755L39.3008 86.6081L36.9188 85.2328L40.9327 82.9002L43.3147 84.2755Z" fill="#384E85"/>
<path d="M35.204 60.5763C35.7226 60.2768 36.0288 60.3424 36.248 60.5409L35.9536 61.0181C35.7653 60.8284 35.5237 60.8438 35.2284 61.0143C34.6277 61.3611 34.2467 62.1159 34.2487 62.8416C34.2508 63.5644 34.6348 63.8834 35.2356 63.5365C35.5308 63.3661 35.7718 63.094 35.9584 62.6937L36.2545 62.833C36.0372 63.2865 35.7324 63.7048 35.2138 64.0042C34.3666 64.4933 33.7945 64.0731 33.7918 63.1055C33.789 62.1379 34.3568 61.0654 35.204 60.5763Z" fill="#D9DDF6"/>
<path d="M37.1145 62.1475C37.2893 62.0467 37.4389 62.1318 37.4395 62.3324C37.44 62.5359 37.2914 62.7901 37.1166 62.8908C36.9392 62.9931 36.7922 62.9094 36.7916 62.7059C36.7911 62.5053 36.9371 62.2497 37.1145 62.1475Z" fill="#D9DDF6"/>
<path d="M37.3361 60.0148C37.4625 59.7969 37.4628 59.5608 37.3365 59.4873C37.2103 59.4139 37.0055 59.531 36.879 59.7489C36.7525 59.9668 36.7523 60.203 36.8786 60.2764C37.0048 60.3498 37.2096 60.2327 37.3361 60.0148Z" fill="#D9DDF6"/>
<path d="M38.0962 57.6062L39.5038 61.5804L39.1572 61.7805L37.7496 57.8063L38.0962 57.6062Z" fill="#D9DDF6"/>
<path d="M40.8392 55.5644L43.2963 56.9676L40.8551 61.1989L40.461 60.9744L42.5159 57.4182L40.4476 56.2425L40.8392 55.5644Z" fill="#D9DDF6"/>
<path d="M46.0406 56.9731L46.0435 58.0292L43.4737 59.5129L43.4707 58.4568L46.0406 56.9731Z" fill="#D9DDF6"/>
</svg>
