<svg width="318" height="168" viewBox="0 0 318 168" fill="none" xmlns="http://www.w3.org/2000/svg">
<path d="M0 16C0 7.16344 7.16344 0 16 0H302C310.837 0 318 7.16344 318 16V168H0V16Z" fill="#BCD1FF"/>
<path d="M105.647 114.482L147.447 138.773C148.332 139.29 149.76 139.29 150.646 138.782L214.159 102.107C215.045 101.599 215.045 100.77 214.159 100.253L172.359 75.962C171.482 75.4534 170.054 75.4534 169.168 75.962L105.655 112.628C104.769 113.145 104.761 113.973 105.647 114.482Z" fill="#AABAFD"/>
<path d="M155.042 116.951C154.542 117.239 154.545 117.709 155.041 117.997L165.345 123.985C165.841 124.274 166.652 124.277 167.152 123.988L187.457 112.265C187.956 111.977 187.953 111.507 187.457 111.219L177.153 105.231C176.657 104.942 175.846 104.939 175.346 105.228L155.042 116.951Z" fill="#2E4277"/>
<path d="M104.99 113.563L104.999 116.008C104.999 116.336 105.22 116.673 105.655 116.927L147.455 141.218C148.341 141.727 149.768 141.727 150.654 141.218L214.168 104.552C214.61 104.298 214.832 103.962 214.832 103.617L214.824 101.18C214.824 101.517 214.602 101.853 214.159 102.107L150.646 138.782C149.76 139.29 148.332 139.29 147.447 138.773L105.647 114.482C105.204 114.228 104.99 113.9 104.99 113.563Z" fill="#798FFE"/>
<path d="M169.045 27.5944C169.93 27.0834 170.65 27.4936 170.653 28.5106L170.766 73.1953C170.769 74.2063 170.054 75.451 169.169 75.962L106.57 112.1C105.685 112.611 104.965 112.195 104.962 111.184L104.849 66.4989C104.846 65.4818 105.561 64.2431 106.446 63.7322L169.045 27.5944Z" fill="#1B2A4F"/>
<path d="M103.168 65.5249L103.283 110.208C103.283 110.708 103.463 111.069 103.75 111.233L105.429 112.21C105.142 112.046 104.962 111.685 104.962 111.184L104.847 66.5013C104.847 65.4841 105.561 64.2455 106.447 63.7287L169.045 27.595C169.488 27.3408 169.89 27.3162 170.185 27.4802L168.507 26.5039C168.219 26.3398 167.809 26.3644 167.366 26.6186L104.768 62.7606C103.882 63.2691 103.168 64.5078 103.168 65.5249Z" fill="#384E85"/>
<path d="M107.109 65.9539L107.217 109.122L168.507 73.7403L168.398 30.5721L107.109 65.9539Z" fill="#384E85"/>
<path d="M107.109 65.9539L107.127 73.1945L168.416 37.8126L168.398 30.5721L107.109 65.9539Z" fill="#AABAFD"/>
<path d="M158.292 39.138C158.883 38.7969 159.363 39.0589 159.365 39.7379C159.367 40.4168 158.89 41.2435 158.299 41.5846C157.718 41.9199 157.238 41.6461 157.236 40.9672C157.234 40.2882 157.711 39.4733 158.292 39.138Z" fill="white"/>
<path d="M161.705 37.1677C162.286 36.8325 162.766 37.0945 162.768 37.7734C162.77 38.4523 162.293 39.279 161.712 39.6143C161.121 39.9554 160.641 39.6816 160.639 39.0027C160.637 38.3238 161.114 37.5088 161.705 37.1677Z" fill="white"/>
<path d="M165.107 35.2032C165.698 34.8621 166.179 35.1241 166.181 35.803C166.183 36.4819 165.705 37.3086 165.114 37.6498C164.524 37.9909 164.043 37.7171 164.041 37.0382C164.039 36.3593 164.517 35.5443 165.107 35.2032Z" fill="white"/>
<path d="M118.465 111.483L114.453 113.815L112.725 112.817L116.737 110.485L118.465 111.483Z" fill="#384E85"/>
<path d="M161.635 86.3959L157.617 88.7307L155.889 87.7328L159.906 85.3981L161.635 86.3959Z" fill="#384E85"/>
<path d="M172.427 80.124L168.409 82.4588L166.681 81.461L170.698 79.1262L172.427 80.124Z" fill="#384E85"/>
<path d="M165.226 94.7242L161.214 97.0558L157.647 94.9961L161.659 92.6646L165.226 94.7242Z" fill="#384E85"/>
<path d="M185.015 93.6463L180.997 95.981L177.424 93.9181L181.442 91.5834L185.015 93.6463Z" fill="#384E85"/>
<path d="M190.414 90.5088L186.396 92.8435L178.325 88.1837L182.343 85.8489L190.414 90.5088Z" fill="#384E85"/>
<path d="M176.925 82.721L169.517 87.0259L165.944 84.9631L173.352 80.6581L176.925 82.721Z" fill="#384E85"/>
<path d="M168.141 87.8254L164.124 90.1602L160.551 88.0973L164.568 85.7625L168.141 87.8254Z" fill="#384E85"/>
<path d="M181.418 85.3148L172.001 90.7871L168.434 88.7274L177.85 83.2552L181.418 85.3148Z" fill="#384E85"/>
<path d="M170.625 91.5866L166.607 93.9213L163.04 91.8617L167.058 89.5269L170.625 91.5866Z" fill="#384E85"/>
<path d="M175.123 94.1836L171.106 96.5183L167.533 94.4554L171.55 92.1207L175.123 94.1836Z" fill="#384E85"/>
<path d="M162.742 90.963L158.725 93.2978L155.152 91.2349L159.169 88.9002L162.742 90.963Z" fill="#384E85"/>
<path d="M156.236 89.5334L152.223 91.865L150.495 90.8671L154.507 88.5356L156.236 89.5334Z" fill="#384E85"/>
<path d="M150.842 92.6678L146.825 95.0025L145.096 94.0047L149.114 91.6699L150.842 92.6678Z" fill="#384E85"/>
<path d="M153.539 106.727L149.521 109.062L145.948 106.999L149.966 104.664L153.539 106.727Z" fill="#384E85"/>
<path d="M145.443 95.8052L141.431 98.1368L139.703 97.1389L143.715 94.8074L145.443 95.8052Z" fill="#384E85"/>
<path d="M151.95 97.2348L147.938 99.5664L144.365 97.5035L148.377 95.172L151.95 97.2348Z" fill="#384E85"/>
<path d="M140.05 98.9395L136.032 101.274L134.304 100.276L138.322 97.9417L140.05 98.9395Z" fill="#384E85"/>
<path d="M146.557 100.369L142.539 102.704L138.966 100.641L142.984 98.3063L146.557 100.369Z" fill="#384E85"/>
<path d="M154.434 100.996L150.422 103.328L146.854 101.268L150.867 98.9363L154.434 100.996Z" fill="#384E85"/>
<path d="M134.657 102.074L130.639 104.409L128.911 103.411L132.928 101.076L134.657 102.074Z" fill="#384E85"/>
<path d="M141.163 103.504L137.146 105.838L133.573 103.775L137.59 101.441L141.163 103.504Z" fill="#384E85"/>
<path d="M158.932 103.593L154.92 105.925L151.347 103.862L155.359 101.53L158.932 103.593Z" fill="#384E85"/>
<path d="M149.041 104.13L145.023 106.465L141.456 104.405L145.473 102.071L149.041 104.13Z" fill="#384E85"/>
<path d="M129.258 105.211L125.24 107.546L123.512 106.548L127.529 104.214L129.258 105.211Z" fill="#384E85"/>
<path d="M135.764 106.641L131.747 108.976L128.174 106.913L132.191 104.578L135.764 106.641Z" fill="#384E85"/>
<path d="M143.647 107.265L139.629 109.599L136.062 107.54L140.08 105.205L143.647 107.265Z" fill="#384E85"/>
<path d="M130.371 109.775L126.353 112.11L122.78 110.047L126.798 107.712L130.371 109.775Z" fill="#384E85"/>
<path d="M148.145 109.862L144.127 112.196L140.554 110.134L144.572 107.799L148.145 109.862Z" fill="#384E85"/>
<path d="M138.248 110.402L134.23 112.737L130.663 110.677L134.681 108.343L138.248 110.402Z" fill="#384E85"/>
<path d="M142.746 112.999L138.729 115.334L135.156 113.271L139.173 110.936L142.746 112.999Z" fill="#384E85"/>
<path d="M163.661 106.056L143.227 117.931L139.654 115.868L160.088 103.993L163.661 106.056Z" fill="#384E85"/>
<path d="M137.353 116.133L133.335 118.468L129.762 116.405L133.78 114.071L137.353 116.133Z" fill="#384E85"/>
<path d="M132.855 113.536L123.444 119.006L119.876 116.946L129.287 111.477L132.855 113.536Z" fill="#384E85"/>
<path d="M131.954 119.271L127.942 121.602L124.369 119.54L128.381 117.208L131.954 119.271Z" fill="#384E85"/>
<path d="M141.851 118.73L132.44 124.199L128.867 122.137L138.278 116.668L141.851 118.73Z" fill="#384E85"/>
<path d="M123.864 108.346L119.846 110.68L118.118 109.683L122.135 107.348L123.864 108.346Z" fill="#384E85"/>
<path d="M167.028 83.2616L163.011 85.5963L161.282 84.5985L165.3 82.2637L167.028 83.2616Z" fill="#384E85"/>
<path d="M157.349 94.0974L153.332 96.4321L149.759 94.3693L153.776 92.0345L157.349 94.0974Z" fill="#384E85"/>
<path d="M168.829 103.052L164.811 105.387L161.238 103.324L165.256 100.99L168.829 103.052Z" fill="#384E85"/>
<path d="M164.331 100.455L160.313 102.79L156.74 100.727L160.758 98.3926L164.331 100.455Z" fill="#384E85"/>
<path d="M159.833 97.8584L155.815 100.193L152.248 98.1335L156.265 95.7988L159.833 97.8584Z" fill="#384E85"/>
<path d="M179.621 96.7806L175.604 99.1153L172.031 97.0524L176.048 94.7177L179.621 96.7806Z" fill="#384E85"/>
<path d="M174.222 99.9181L170.21 102.25L166.637 100.187L170.649 97.8552L174.222 99.9181Z" fill="#384E85"/>
<path d="M124.972 112.913L118.951 116.412L115.378 114.349L121.399 110.85L124.972 112.913Z" fill="#384E85"/>
<path d="M112.806 77.3641C113.584 76.915 114.043 77.0132 114.372 77.311L113.93 78.0269C113.648 77.7423 113.285 77.7654 112.842 78.0211C111.941 78.5414 111.37 79.6736 111.373 80.7621C111.376 81.8463 111.952 82.3248 112.853 81.8045C113.296 81.5488 113.657 81.1407 113.937 80.5403L114.381 80.7492C114.056 81.4294 113.598 82.0568 112.82 82.506C111.55 83.2397 110.691 82.6093 110.687 81.1579C110.683 79.7065 111.535 78.0978 112.806 77.3641Z" fill="#D9DDF6"/>
<path d="M115.671 79.7212C115.933 79.57 116.157 79.6977 116.157 79.9986C116.158 80.3039 115.936 80.6851 115.674 80.8363C115.408 80.9897 115.188 80.8642 115.187 80.5589C115.186 80.258 115.405 79.8746 115.671 79.7212Z" fill="#D9DDF6"/>
<path d="M116.003 76.5218C116.193 76.1952 116.194 75.8413 116.004 75.7314C115.815 75.6214 115.508 75.7971 115.318 76.1237C115.128 76.4503 115.128 76.8041 115.317 76.9141C115.506 77.024 115.814 76.8484 116.003 76.5218Z" fill="#D9DDF6"/>
<path d="M117.144 72.9091L119.256 78.8704L118.736 79.1705L116.624 73.2093L117.144 72.9091Z" fill="#D9DDF6"/>
<path d="M121.259 69.8465L124.945 71.9514L121.283 78.2983L120.692 77.9614L123.774 72.6272L120.672 70.8637L121.259 69.8465Z" fill="#D9DDF6"/>
<path d="M129.06 71.9597L129.065 73.5438L125.21 75.7694L125.206 74.1852L129.06 71.9597Z" fill="#D9DDF6"/>
</svg>
